<svg id="svg" version="1.1" xmlns="http://www.w3.org/2000/svg" xmlns:xlink="http://www.w3.org/1999/xlink" width="400" height="400" viewBox="0, 0, 400,400"><g id="svgg"><path id="path0" d="M178.558 2.051 C 178.286 3.179,177.285 6.752,176.334 9.992 C 147.037 109.801,209.958 211.240,312.109 228.886 C 338.132 233.381,361.727 231.962,389.648 224.222 C 393.516 223.149,397.427 222.088,398.340 221.863 L 400.000 221.454 400.000 216.791 L 400.000 212.129 399.121 212.475 C 398.638 212.666,397.225 213.277,395.981 213.835 C 394.737 214.392,391.661 215.455,389.145 216.199 C 271.420 250.967,159.697 152.947,179.302 32.094 C 180.839 22.620,184.936 7.594,187.354 2.564 C 187.864 1.503,188.281 0.492,188.281 0.318 C 188.281 0.143,186.205 -0.000,183.668 -0.000 L 179.054 -0.000 178.558 2.051 M214.644 1.855 C 213.815 4.203,212.857 6.818,210.706 12.606 C 195.732 52.887,201.415 100.185,225.592 136.511 C 261.379 190.279,330.276 212.406,390.234 189.386 C 392.490 188.520,395.391 187.478,396.680 187.070 C 400.276 185.931,400.031 186.587,399.911 178.413 L 399.805 171.141 397.691 172.474 C 390.795 176.823,373.824 182.365,361.328 184.348 C 275.404 197.981,201.855 123.234,216.832 37.500 C 218.997 25.108,224.787 8.136,228.877 2.190 C 229.538 1.230,230.078 0.345,230.078 0.223 C 230.078 0.100,226.753 0.000,222.689 0.000 L 215.299 0.000 214.644 1.855 M250.257 0.293 C 239.244 18.220,233.424 38.694,233.407 59.570 C 233.343 139.963,316.768 191.958,388.867 156.461 C 392.520 154.663,396.519 152.747,397.754 152.203 L 400.000 151.215 400.000 137.074 L 400.000 122.934 397.949 124.866 C 368.516 152.605,318.175 153.304,286.009 126.422 C 248.374 94.969,243.855 37.190,276.314 2.452 L 278.605 0.000 264.521 0.000 C 256.775 0.000,250.356 0.132,250.257 0.293 M334.310 23.659 C 307.779 28.460,295.394 60.635,311.868 81.963 C 333.392 109.828,377.485 94.912,377.485 59.766 C 377.485 36.418,357.262 19.506,334.310 23.659 M129.102 213.127 C 122.451 216.758,124.659 226.510,132.141 226.554 C 139.132 226.595,142.041 218.049,136.480 213.808 C 134.699 212.449,130.974 212.105,129.102 213.127 M44.336 217.847 C 40.353 218.692,40.440 218.330,40.564 233.594 C 40.716 252.273,40.736 252.299,49.562 244.988 C 55.410 240.145,55.299 240.412,55.149 231.445 C 55.010 223.166,54.673 221.746,52.385 219.822 C 50.757 218.452,46.457 217.397,44.336 217.847 M102.857 218.565 C 101.690 219.265,100.932 220.140,100.207 221.621 L 99.191 223.696 99.303 249.055 C 99.413 274.105,99.424 274.436,100.258 276.241 C 103.149 282.497,111.842 281.405,113.686 274.555 C 113.950 273.577,114.051 264.411,113.979 248.149 L 113.867 223.242 112.783 221.397 C 110.628 217.731,106.306 216.498,102.857 218.565 M156.055 218.707 C 151.297 220.903,151.386 220.353,151.255 248.404 C 151.133 274.661,151.200 275.678,153.216 277.973 C 158.074 283.507,165.139 280.293,165.962 272.174 C 166.417 267.686,167.531 265.849,171.094 263.713 C 174.567 261.631,175.816 262.539,181.242 271.094 C 187.030 280.218,189.760 282.028,194.409 279.822 C 199.526 277.394,199.185 273.065,193.136 263.679 C 185.812 252.317,185.786 253.152,193.689 246.559 C 198.563 242.493,198.579 236.677,193.723 234.166 C 190.387 232.441,187.570 233.569,178.767 240.154 C 165.793 249.859,166.304 250.089,166.005 234.433 C 165.813 224.412,165.739 223.520,164.972 222.070 C 163.056 218.447,159.514 217.111,156.055 218.707 M129.688 233.642 C 128.306 234.193,127.013 235.490,126.036 237.305 C 125.147 238.956,124.695 271.274,125.508 275.106 C 127.071 282.483,137.808 282.108,139.414 274.621 C 139.998 271.900,139.998 241.772,139.414 239.051 C 138.449 234.549,133.840 231.986,129.688 233.642 M68.324 248.442 C 62.233 252.073,62.179 252.391,66.465 259.424 C 68.216 262.297,71.236 267.276,73.177 270.488 C 78.357 279.061,79.833 280.469,83.638 280.469 C 88.975 280.469,92.185 275.153,89.895 270.110 C 88.911 267.944,76.362 248.734,75.120 247.492 C 73.591 245.963,72.144 246.166,68.324 248.442 M47.308 258.407 C 44.171 259.317,42.558 259.999,41.840 260.718 L 40.820 261.739 40.820 268.498 L 40.820 275.258 41.992 277.145 C 45.269 282.419,53.025 281.399,54.670 275.476 C 55.259 273.358,55.207 258.097,54.609 257.500 C 53.892 256.783,52.170 256.997,47.308 258.407 M296.289 288.837 C 290.453 291.453,290.704 299.496,296.692 301.783 C 302.999 304.192,308.684 297.080,304.956 291.446 C 303.177 288.759,299.161 287.550,296.289 288.837 M161.637 293.745 C 157.945 294.858,156.617 297.344,156.276 303.782 C 155.926 310.374,155.139 311.089,149.973 309.506 C 139.169 306.195,126.908 313.933,123.819 326.014 C 118.549 346.619,137.370 363.152,155.550 353.889 C 159.061 352.099,160.072 351.996,161.591 353.269 C 165.915 356.892,168.346 357.147,170.150 354.166 C 171.256 352.338,171.268 301.202,170.163 298.309 C 168.803 294.747,165.024 292.725,161.637 293.745 M88.867 294.319 C 86.703 295.109,85.403 296.710,84.371 299.855 C 83.887 301.331,79.524 312.383,74.675 324.414 C 64.670 349.239,64.510 349.830,66.860 353.384 C 70.285 358.565,76.631 357.166,80.115 350.461 C 82.491 345.890,83.521 345.537,93.848 345.764 C 101.072 345.923,101.290 346.024,103.711 350.297 C 105.672 353.759,106.443 354.617,108.398 355.515 C 114.067 358.118,119.623 353.088,118.037 346.788 C 117.580 344.973,100.551 302.628,99.182 299.903 C 96.716 294.992,92.813 292.879,88.867 294.319 M241.905 294.164 C 240.230 294.675,238.120 296.904,237.588 298.725 C 236.643 301.956,236.786 349.919,237.747 351.995 C 241.220 359.507,250.590 356.893,251.386 348.191 C 251.754 344.165,252.181 343.196,254.538 341.041 C 259.399 336.599,260.647 337.151,266.585 346.370 C 273.510 357.123,276.742 358.827,281.503 354.235 C 284.868 350.989,284.296 348.373,278.100 338.680 C 271.676 328.632,271.671 328.467,277.623 323.671 C 283.866 318.640,284.655 313.590,279.718 310.263 C 276.311 307.967,273.444 309.082,263.582 316.537 C 251.625 325.578,251.648 325.591,251.478 309.961 C 251.371 300.178,251.333 299.735,250.441 297.923 C 248.887 294.767,245.222 293.153,241.905 294.164 M295.995 309.793 C 293.746 310.980,292.526 313.140,292.195 316.526 C 291.601 322.591,292.201 350.425,292.964 352.191 C 295.305 357.611,303.071 357.492,305.613 351.995 C 306.649 349.755,306.928 316.792,305.935 313.989 C 304.421 309.719,299.817 307.775,295.995 309.793 M333.676 309.592 C 326.807 311.441,320.857 316.462,317.963 322.852 C 309.119 342.375,328.985 363.021,348.400 354.485 C 352.269 352.784,352.764 352.791,355.656 354.579 C 359.723 357.094,362.400 356.283,363.259 352.277 C 363.753 349.972,363.801 315.490,363.313 312.968 C 362.552 309.030,359.656 308.257,355.709 310.938 C 352.942 312.818,352.474 312.843,349.219 311.281 C 344.354 308.948,338.452 308.306,333.676 309.592 M188.477 310.120 C 184.842 311.038,183.008 313.146,183.008 316.406 C 183.008 320.881,185.483 322.340,193.593 322.645 C 203.510 323.017,203.336 323.898,191.193 334.785 C 180.892 344.021,179.653 345.887,180.889 350.302 C 182.350 355.518,183.760 355.860,203.786 355.857 C 224.506 355.854,226.566 355.229,226.561 348.945 C 226.557 344.151,224.204 342.896,214.648 342.593 C 202.808 342.218,202.801 342.030,214.205 330.505 C 219.078 325.580,222.898 321.386,223.385 320.426 C 225.163 316.919,224.076 312.977,220.801 311.052 L 218.945 309.961 204.297 309.892 C 196.240 309.855,189.121 309.957,188.477 310.120 M94.002 322.184 C 94.995 323.662,97.234 329.305,97.534 331.084 C 98.035 334.057,92.658 335.952,88.570 334.244 C 86.010 333.174,85.956 331.793,88.244 325.911 C 90.363 320.463,92.094 319.343,94.002 322.184 M150.808 324.237 C 157.243 327.498,157.603 336.967,151.437 340.779 C 145.487 344.458,137.980 340.063,137.908 332.858 C 137.837 325.805,144.765 321.176,150.808 324.237 M343.602 324.150 C 352.216 328.579,349.153 342.188,339.542 342.188 C 335.828 342.188,332.352 339.615,331.040 335.895 C 328.244 327.970,336.330 320.410,343.602 324.150 " stroke="none" fill="#fbebe2" fill-rule="evenodd"></path><path id="path1" d="M0.001 166.211 L 0.003 332.422 1.662 332.416 C 2.574 332.413,3.110 332.276,2.853 332.113 C 2.544 331.917,2.509 331.619,2.749 331.240 C 3.068 330.735,3.115 330.736,3.131 331.250 C 3.144 331.668,3.279 331.612,3.605 331.055 C 4.046 330.299,4.070 330.305,4.335 331.250 C 4.532 331.950,4.635 331.562,4.700 329.883 C 4.781 327.794,4.822 327.688,5.078 328.906 C 5.236 329.658,5.389 330.043,5.417 329.761 C 5.555 328.386,6.798 327.439,7.941 327.838 C 8.968 328.196,9.044 328.355,8.892 329.836 C 8.676 331.952,9.243 333.552,10.293 333.785 C 11.031 333.949,13.854 334.282,15.086 334.351 C 15.326 334.364,15.623 334.990,15.745 335.742 C 15.963 337.091,18.187 340.625,18.816 340.625 C 18.995 340.625,19.141 340.876,19.141 341.183 C 19.141 341.490,19.386 341.986,19.686 342.286 C 20.264 342.865,21.094 347.363,21.094 349.923 C 21.094 351.135,21.378 351.754,22.461 352.903 C 23.549 354.057,23.836 354.685,23.867 355.985 C 23.899 357.320,23.957 357.439,24.184 356.641 C 24.450 355.703,24.472 355.717,24.735 357.006 C 25.149 359.030,27.282 360.868,27.371 359.277 C 27.386 359.009,27.550 359.141,27.734 359.570 C 27.998 360.183,28.076 360.009,28.098 358.765 C 28.116 357.690,27.873 356.908,27.344 356.340 C 26.914 355.879,26.565 355.186,26.568 354.801 C 26.574 354.207,26.631 354.190,26.953 354.688 C 27.264 355.169,27.333 355.127,27.338 354.457 C 27.341 354.007,27.738 353.442,28.223 353.196 C 31.858 351.357,32.221 350.992,32.348 349.039 C 32.414 348.009,32.750 346.738,33.093 346.214 C 34.102 344.674,33.872 341.933,32.652 340.973 C 32.096 340.536,31.641 339.839,31.641 339.425 C 31.641 339.011,31.503 338.672,31.336 338.672 C 31.168 338.672,30.816 338.188,30.555 337.598 C 30.293 337.007,29.481 335.525,28.750 334.305 C 28.020 333.085,27.301 331.371,27.153 330.497 C 27.005 329.622,26.745 328.906,26.575 328.906 C 25.697 328.906,25.295 324.301,26.054 322.948 C 26.520 322.118,27.707 323.580,27.959 325.294 C 28.395 328.261,28.712 328.835,29.800 328.627 C 30.678 328.459,30.769 328.592,31.007 330.389 C 31.269 332.361,32.238 334.766,32.772 334.766 C 34.038 334.766,35.569 341.029,34.773 342.951 C 34.255 344.202,34.534 346.283,35.168 345.891 C 35.376 345.762,35.547 346.013,35.547 346.449 C 35.547 346.948,35.739 347.167,36.067 347.041 C 36.354 346.932,37.364 347.034,38.313 347.269 C 39.263 347.504,40.353 347.731,40.737 347.774 C 41.121 347.817,41.561 348.031,41.714 348.250 C 41.867 348.469,42.476 348.861,43.066 349.121 C 44.031 349.544,44.141 349.791,44.141 351.531 C 44.141 352.597,44.316 353.578,44.531 353.711 C 44.746 353.844,44.922 354.549,44.922 355.277 C 44.922 357.675,45.713 360.497,46.451 360.731 C 46.830 360.852,47.366 361.372,47.642 361.888 C 47.918 362.403,48.473 362.911,48.877 363.016 C 49.420 363.159,49.609 363.567,49.609 364.598 C 49.609 365.966,50.384 366.792,51.903 367.043 C 52.406 367.127,54.515 368.863,55.164 369.727 C 55.325 369.941,55.459 371.178,55.463 372.474 C 55.468 374.676,55.546 374.877,56.641 375.524 C 57.285 375.905,57.813 376.084,57.812 375.922 C 57.812 374.461,60.525 378.537,60.927 380.600 C 61.385 382.957,62.512 384.766,63.523 384.766 C 63.795 384.766,64.267 385.121,64.572 385.556 C 64.884 386.002,65.375 386.250,65.698 386.126 C 66.447 385.838,68.359 386.572,68.359 387.146 C 68.359 387.647,70.703 389.828,71.252 389.838 C 71.447 389.841,72.172 390.276,72.864 390.803 C 73.556 391.331,74.232 391.654,74.366 391.520 C 74.500 391.386,74.609 391.546,74.609 391.876 C 74.609 393.682,56.304 395.378,52.002 393.970 C 51.361 393.760,51.157 393.800,51.341 394.099 C 51.488 394.337,51.422 394.531,51.195 394.531 C 50.967 394.531,50.781 394.355,50.781 394.141 C 50.781 393.926,50.386 393.753,49.902 393.756 C 49.177 393.761,49.126 393.833,49.609 394.170 C 50.043 394.473,49.841 394.516,48.828 394.336 C 47.849 394.162,47.624 394.205,48.036 394.486 C 48.771 394.990,48.502 395.241,46.879 395.566 C 45.706 395.800,45.601 395.750,45.856 395.081 C 46.084 394.483,46.043 394.433,45.648 394.824 C 45.329 395.141,43.946 395.313,41.719 395.313 C 39.827 395.313,38.281 395.478,38.281 395.681 C 38.281 395.895,35.949 396.044,32.715 396.036 C 29.653 396.030,24.183 396.225,20.558 396.470 C 12.757 396.997,8.291 397.079,7.147 396.716 C 6.690 396.571,6.204 396.634,6.067 396.855 C 5.916 397.099,6.094 397.168,6.523 397.029 C 7.088 396.846,7.116 396.880,6.662 397.202 C 6.303 397.456,5.849 397.469,5.416 397.237 C 5.041 397.037,4.653 397.005,4.553 397.167 C 4.453 397.329,3.696 397.436,2.869 397.405 C 0.766 397.328,0.707 397.311,0.971 396.884 C 1.100 396.675,0.942 396.015,0.619 395.419 C 0.050 394.370,0.031 394.426,0.016 397.187 L 0.000 400.038 171.777 399.847 C 266.255 399.742,343.994 399.633,344.531 399.604 C 345.068 399.576,346.123 399.645,346.875 399.759 C 348.150 399.952,348.163 399.943,347.070 399.638 C 346.162 399.385,346.646 399.289,349.219 399.214 C 356.869 398.991,362.617 399.010,361.523 399.255 L 360.352 399.517 361.751 399.563 C 362.521 399.589,363.264 399.496,363.403 399.358 C 363.768 398.992,368.820 398.790,368.597 399.150 C 368.494 399.317,369.011 399.453,369.746 399.453 C 370.481 399.453,370.894 399.336,370.663 399.194 C 370.432 399.051,370.918 398.926,371.743 398.915 C 372.567 398.903,379.043 398.807,386.133 398.700 C 394.837 398.569,399.184 398.640,399.519 398.917 C 400.137 399.428,400.208 272.010,399.590 271.266 C 399.354 270.981,399.382 270.352,399.668 269.532 C 400.011 268.548,400.005 268.067,399.645 267.490 C 399.276 266.898,399.279 266.609,399.659 266.151 C 400.042 265.690,400.043 265.503,399.667 265.270 C 399.310 265.049,399.293 264.698,399.602 263.888 C 400.095 262.590,399.967 258.911,399.414 258.496 C 399.166 258.310,399.217 258.078,399.553 257.861 C 399.960 257.599,399.973 257.451,399.609 257.227 C 399.246 257.002,399.259 256.855,399.665 256.598 C 400.037 256.362,400.053 256.260,399.719 256.256 C 399.457 256.253,399.338 256.004,399.453 255.704 C 399.568 255.403,399.493 255.052,399.286 254.925 C 399.047 254.776,399.058 254.110,399.317 253.088 C 399.771 251.298,399.431 250.821,397.656 250.760 C 396.769 250.729,396.751 250.698,397.461 250.412 C 397.891 250.239,398.362 250.167,398.508 250.251 C 399.045 250.559,399.309 249.476,399.322 246.922 C 399.335 244.139,398.792 242.578,397.810 242.578 C 397.146 242.578,397.162 240.642,397.830 240.164 C 398.034 240.017,397.727 239.778,397.148 239.633 C 396.111 239.373,395.628 238.577,396.582 238.701 C 397.741 238.851,398.143 238.673,397.747 238.184 C 397.529 237.915,397.376 236.523,397.406 235.091 C 397.436 233.658,397.301 232.516,397.105 232.552 C 396.909 232.588,396.627 232.178,396.479 231.641 C 396.231 230.743,396.182 230.791,395.876 232.227 L 395.542 233.789 395.289 232.227 C 395.149 231.367,394.910 230.376,394.758 230.025 C 394.445 229.302,396.330 227.727,397.626 227.629 C 398.042 227.598,398.297 227.433,398.192 227.263 C 398.010 226.967,398.556 226.809,399.430 226.905 C 399.662 226.931,399.876 225.938,399.929 224.588 L 400.022 222.226 398.937 223.021 C 396.304 224.948,380.186 229.320,368.728 231.214 C 251.181 250.641,149.438 148.531,169.158 30.923 C 171.442 17.301,176.253 0.743,178.066 0.262 C 178.421 0.168,138.501 0.070,89.355 0.045 L -0.001 0.000 0.001 166.211 M188.928 0.265 C 188.782 0.411,188.762 1.070,188.884 1.730 C 189.035 2.543,188.593 4.567,187.513 8.008 C 164.303 82.004,192.682 158.541,258.008 198.125 C 297.970 222.340,351.002 227.860,394.483 212.329 C 395.423 211.993,397.049 211.719,398.096 211.719 L 400.000 211.719 400.000 210.339 C 400.000 209.576,399.776 208.874,399.498 208.767 C 398.115 208.236,394.867 208.560,391.211 209.593 C 384.453 211.502,378.516 207.821,378.516 201.723 C 378.516 199.968,379.287 199.458,386.392 196.518 C 394.343 193.228,396.371 192.296,396.683 191.792 C 396.818 191.573,397.074 191.483,397.252 191.593 C 397.429 191.703,397.675 191.530,397.798 191.209 C 397.922 190.888,398.214 190.625,398.448 190.625 C 398.683 190.625,398.766 190.801,398.633 191.016 C 398.500 191.230,398.655 191.406,398.976 191.406 C 399.298 191.406,399.574 191.099,399.591 190.723 C 399.607 190.347,399.713 189.160,399.825 188.086 C 399.977 186.635,399.925 186.301,399.622 186.786 C 397.503 190.181,374.345 197.426,359.355 199.385 C 260.426 212.311,179.915 121.506,204.655 24.906 C 207.133 15.233,211.661 3.175,213.605 1.074 L 214.599 0.000 201.896 0.000 C 194.909 0.000,189.073 0.119,188.928 0.265 M230.315 0.618 C 230.185 0.958,230.078 1.755,230.078 2.389 C 230.078 3.023,228.961 6.128,227.596 9.290 C 209.628 50.916,215.037 98.150,241.869 133.930 C 276.586 180.224,337.914 196.400,391.480 173.392 C 394.423 172.128,397.266 171.094,397.798 171.094 C 399.289 171.094,400.000 170.693,400.000 169.852 C 400.000 167.820,397.508 167.703,393.488 169.547 C 382.599 174.541,363.633 179.419,357.844 178.714 C 354.932 178.360,352.455 177.234,351.898 176.012 C 351.651 175.469,351.307 175.112,351.134 175.219 C 350.962 175.325,350.628 175.053,350.393 174.615 C 350.068 174.007,350.087 173.778,350.471 173.657 C 352.647 172.968,354.698 172.497,361.641 171.092 C 373.891 168.613,387.211 163.484,396.472 157.680 C 399.614 155.711,399.972 155.273,399.988 153.378 L 400.000 151.872 398.674 153.036 C 393.206 157.837,375.419 165.078,363.011 167.554 C 279.383 184.240,209.349 104.713,236.888 24.337 C 239.700 16.128,245.208 4.674,247.656 1.941 C 249.195 0.224,249.079 -0.055,246.882 0.078 C 245.804 0.142,244.922 0.334,244.922 0.504 C 244.922 0.778,243.475 3.010,242.969 3.516 C 242.740 3.744,242.488 4.189,239.451 9.711 C 238.193 11.997,236.346 15.713,235.346 17.969 C 231.687 26.219,231.287 26.732,229.570 25.382 C 229.030 24.957,228.383 24.609,228.133 24.609 C 227.154 24.609,226.586 23.562,226.940 22.408 C 227.129 21.793,227.546 20.410,227.865 19.336 C 228.398 17.545,229.981 13.075,232.569 6.055 C 233.124 4.551,233.581 2.573,233.586 1.660 L 233.594 0.000 232.073 0.000 C 231.047 0.000,230.475 0.201,230.315 0.618 M278.584 0.904 C 278.117 1.401,277.734 2.061,277.733 2.369 C 277.731 3.126,276.541 5.027,274.500 7.532 C 248.403 39.573,251.401 89.143,281.250 119.132 C 311.279 149.302,360.722 152.610,392.957 126.604 C 393.918 125.829,395.764 124.667,397.059 124.022 C 399.918 122.597,400.593 121.089,398.367 121.100 C 396.884 121.108,395.579 121.831,390.630 125.391 C 379.962 133.063,370.953 136.954,357.031 139.904 C 347.835 141.852,328.944 140.852,324.131 138.161 L 322.598 137.305 322.763 135.176 C 322.854 134.005,323.131 132.980,323.378 132.897 C 324.053 132.673,323.920 130.895,323.173 130.148 C 322.438 129.412,320.839 129.152,320.493 129.712 C 320.190 130.202,318.750 130.182,318.750 129.688 C 318.750 129.473,318.311 129.297,317.773 129.297 C 317.149 129.297,316.797 129.077,316.797 128.688 C 316.797 128.353,316.621 128.188,316.406 128.320 C 316.185 128.457,316.016 128.129,316.016 127.562 C 316.016 127.012,316.191 126.563,316.406 126.563 C 316.961 126.563,316.868 125.322,316.253 124.512 C 315.968 124.136,315.456 123.828,315.116 123.828 C 314.776 123.828,314.252 123.478,313.952 123.049 C 313.652 122.621,313.290 122.387,313.149 122.529 C 313.007 122.670,312.891 122.406,312.891 121.940 C 312.891 121.475,312.715 121.094,312.500 121.094 C 312.285 121.094,312.109 121.303,312.109 121.559 C 312.109 121.815,311.876 121.706,311.591 121.316 C 311.053 120.580,309.375 120.745,309.375 121.534 C 309.375 121.747,309.199 121.812,308.984 121.680 C 308.770 121.547,308.594 121.712,308.594 122.047 C 308.594 122.382,308.340 122.656,308.030 122.656 C 307.720 122.656,307.217 123.012,306.913 123.446 C 305.754 125.101,303.728 122.458,304.633 120.472 C 305.425 118.733,304.601 114.453,303.474 114.453 C 303.316 114.453,303.077 113.953,302.943 113.342 C 302.764 112.527,302.236 111.999,300.968 111.366 C 298.981 110.373,298.779 110.128,298.232 108.043 C 297.773 106.293,296.327 105.029,294.681 104.942 C 293.204 104.864,292.390 103.997,291.535 101.587 C 291.073 100.288,290.610 99.609,290.184 99.609 C 289.473 99.609,289.063 98.842,289.063 97.510 C 289.063 96.566,285.546 92.969,284.623 92.969 C 283.667 92.969,282.117 88.773,282.026 85.938 C 282.022 85.830,281.890 85.918,281.732 86.133 C 280.745 87.476,277.734 88.161,277.734 87.041 C 277.734 86.835,277.411 86.769,277.017 86.894 C 276.442 87.076,276.204 86.804,275.822 85.528 C 275.546 84.609,275.148 84.003,274.879 84.095 C 274.623 84.184,274.063 83.882,273.633 83.424 C 273.203 82.967,272.764 82.580,272.656 82.564 C 271.182 82.354,270.703 81.887,270.703 80.663 C 270.703 79.198,270.027 77.108,269.669 77.466 C 269.079 78.056,268.286 76.415,268.299 74.633 C 268.310 73.319,268.138 72.655,267.751 72.506 C 267.441 72.387,267.188 72.021,267.188 71.692 C 267.188 71.363,266.952 71.094,266.665 71.094 C 265.992 71.094,263.282 68.788,263.278 68.212 C 263.268 66.997,261.402 63.910,261.255 64.864 C 260.954 66.810,260.079 54.552,260.339 52.023 C 262.000 35.806,266.634 22.784,274.741 11.552 C 276.280 9.420,278.019 6.959,278.606 6.084 C 279.193 5.208,279.821 4.314,280.001 4.095 C 282.056 1.607,280.730 -1.380,278.584 0.904 M333.380 19.730 C 324.853 21.292,314.653 27.227,309.690 33.515 C 308.553 34.955,307.301 36.484,306.907 36.914 C 301.844 42.437,298.567 56.783,300.173 66.388 C 306.440 103.867,353.981 113.948,374.899 82.235 C 394.705 52.206,368.820 13.236,333.380 19.730 M350.195 22.222 C 379.335 29.520,389.566 65.672,368.488 86.862 C 344.831 110.644,304.507 95.388,302.473 61.885 C 300.922 36.353,325.398 16.011,350.195 22.222 M169.644 118.803 C 172.144 119.438,173.640 121.094,173.596 123.179 C 173.555 125.136,173.364 125.489,162.413 143.832 C 156.267 154.127,155.775 154.778,151.630 158.108 C 150.650 158.895,149.043 161.053,147.412 163.772 C 145.963 166.188,142.541 171.683,139.808 175.984 C 134.298 184.656,134.082 185.073,132.591 189.950 C 131.157 194.638,128.128 198.626,118.066 209.066 C 112.244 215.108,112.140 215.352,114.254 218.011 C 117.077 221.561,116.992 220.574,116.992 250.000 L 116.992 276.367 116.117 278.005 C 111.586 286.482,99.603 285.615,96.556 276.591 C 95.741 274.178,95.731 273.812,95.972 254.549 C 96.293 228.939,96.529 229.805,90.577 234.750 C 88.777 236.245,85.459 238.929,83.203 240.713 C 77.372 245.326,76.954 243.523,87.692 260.111 C 94.481 270.597,95.011 271.908,94.013 275.717 C 92.129 282.900,85.652 286.055,78.812 283.123 C 76.153 281.983,74.988 280.492,69.245 270.887 C 59.369 254.367,58.886 254.229,58.785 267.912 C 58.692 280.430,55.904 284.609,47.683 284.549 C 40.103 284.493,36.612 280.023,36.414 270.117 C 36.274 263.110,36.285 263.149,34.010 261.660 C 30.246 259.195,30.210 257.038,33.878 253.614 L 36.506 251.161 36.829 243.842 C 37.007 239.817,37.049 232.740,36.922 228.115 C 36.598 216.311,37.715 214.453,45.137 214.453 C 54.096 214.453,58.594 218.646,58.594 226.999 C 58.594 233.467,59.338 233.462,65.696 226.955 C 78.067 214.293,85.674 203.637,92.576 189.304 C 95.392 183.458,96.317 181.901,97.658 180.753 C 100.154 178.617,99.808 178.516,90.044 178.516 C 67.753 178.516,55.669 172.571,63.346 165.381 C 67.453 161.535,79.035 153.702,89.284 147.840 C 99.869 141.787,99.875 141.827,87.197 133.480 C 80.501 129.072,79.510 128.072,79.510 125.731 C 79.510 116.483,103.807 116.704,124.105 126.136 C 129.268 128.535,128.628 128.520,133.957 126.378 C 151.586 119.293,162.470 116.983,169.644 118.803 M154.274 163.449 C 157.458 167.286,158.849 207.308,155.998 213.086 C 155.463 214.172,152.024 217.315,149.744 218.803 C 147.148 220.497,146.191 218.979,137.749 199.764 C 133.976 191.178,133.969 191.223,140.864 180.859 C 142.794 177.959,145.921 173.079,147.813 170.015 C 151.831 163.512,153.184 162.136,154.274 163.449 M136.706 210.540 C 143.590 214.052,144.126 223.700,137.684 228.133 C 135.766 229.452,135.509 230.212,136.753 230.878 C 140.050 232.642,142.025 235.767,142.607 240.138 C 143.468 246.597,142.905 275.300,141.875 277.539 C 138.032 285.888,126.713 286.007,122.886 277.739 C 122.095 276.029,122.070 275.417,122.070 257.218 L 122.070 238.459 123.353 235.855 C 124.312 233.907,125.123 232.892,126.575 231.827 C 128.988 230.055,128.988 229.710,126.574 227.975 C 116.398 220.665,125.580 204.864,136.706 210.540 M162.698 216.153 C 167.674 218.470,168.445 220.538,168.722 232.306 C 169.018 244.845,168.285 244.453,178.001 237.271 C 188.024 229.863,191.305 228.993,196.287 232.420 C 202.846 236.933,201.456 243.993,192.590 251.182 C 190.042 253.249,190.188 253.851,195.072 261.426 C 202.024 272.208,202.621 276.225,197.966 280.880 C 192.147 286.699,186.070 284.156,178.944 272.919 C 174.972 266.655,174.105 265.761,172.611 266.383 C 170.144 267.409,169.256 268.982,168.780 273.167 C 167.262 286.529,151.080 287.830,148.421 274.805 C 148.056 273.015,148.009 266.829,148.223 248.633 L 148.503 224.805 149.482 222.998 C 152.611 217.226,158.478 214.187,162.698 216.153 M399.121 235.452 C 398.745 235.536,398.438 235.767,398.438 235.966 C 398.438 236.424,398.861 236.419,399.598 235.953 C 400.300 235.509,400.049 235.246,399.121 235.452 M302.835 286.509 C 310.301 289.629,310.688 298.929,303.549 303.689 C 301.058 305.350,300.748 305.679,301.333 306.033 C 306.059 308.895,307.884 310.925,308.558 314.065 C 309.259 317.333,309.133 349.752,308.410 352.175 C 305.758 361.064,292.675 361.203,290.077 352.371 C 289.164 349.264,289.145 316.412,290.056 313.347 C 290.777 310.919,292.434 308.928,295.215 307.148 C 297.620 305.609,297.677 305.422,295.996 304.606 C 284.111 298.836,290.687 281.433,302.835 286.509 M94.396 290.816 C 99.348 292.287,101.015 294.632,106.195 307.422 C 115.940 331.482,118.190 336.719,118.784 336.719 C 118.915 336.719,119.131 334.741,119.265 332.324 C 120.275 314.120,133.276 303.223,150.554 306.096 C 152.619 306.440,153.125 305.700,153.125 302.340 C 153.125 289.951,167.937 285.535,172.781 296.480 C 174.287 299.882,175.023 351.139,173.623 355.107 C 171.938 359.882,166.595 361.249,161.996 358.081 C 159.469 356.341,158.784 356.310,155.652 357.789 C 145.731 362.477,134.705 360.305,126.664 352.079 C 123.118 348.451,122.266 348.001,122.266 349.757 C 122.266 353.906,118.482 358.754,114.296 359.968 C 108.839 361.551,103.739 358.985,100.810 353.182 C 99.069 349.733,99.228 349.793,92.088 349.885 C 84.977 349.976,85.303 349.840,83.362 353.533 C 76.953 365.729,61.152 362.798,61.153 349.414 C 61.153 345.959,61.664 344.484,68.390 328.516 C 70.064 324.541,71.951 319.883,72.584 318.164 C 73.216 316.445,74.968 312.394,76.476 309.162 C 77.985 305.929,79.774 301.710,80.452 299.787 C 83.309 291.681,87.730 288.837,94.396 290.816 M248.275 292.034 C 253.131 294.338,254.297 297.737,254.297 309.592 C 254.297 320.416,253.978 320.264,262.905 313.673 C 274.864 304.844,281.093 304.318,284.595 311.840 C 287.021 317.049,285.554 320.323,277.808 326.995 C 275.358 329.105,275.494 329.719,279.929 336.575 C 287.213 347.836,287.865 350.600,284.364 355.360 C 279.108 362.508,271.858 360.133,264.871 348.972 C 260.577 342.114,260.313 341.797,258.919 341.797 C 257.297 341.797,254.827 344.243,254.560 346.113 C 253.748 351.816,253.484 352.915,252.547 354.514 C 248.209 361.916,236.952 360.398,234.535 352.084 C 233.551 348.700,233.910 300.195,234.939 297.483 C 236.930 292.236,243.255 289.652,248.275 292.034 M343.388 306.805 C 345.014 307.095,347.614 307.890,349.165 308.570 C 352.281 309.938,352.594 309.916,355.459 308.135 C 359.199 305.809,362.941 306.497,364.869 309.863 L 365.820 311.523 365.820 332.617 C 365.820 352.931,365.791 353.768,365.039 355.268 C 363.293 358.750,358.955 359.717,355.347 357.429 C 352.606 355.690,351.991 355.645,348.967 356.957 C 329.832 365.262,308.808 346.913,314.036 326.471 C 317.425 313.221,330.446 304.496,343.388 306.805 M220.128 307.625 C 224.300 308.792,227.109 312.469,227.134 316.797 C 227.158 321.020,226.075 322.684,217.939 330.922 C 209.178 339.793,209.225 339.245,217.188 339.609 C 225.740 340.000,229.694 342.992,229.685 349.069 C 229.680 352.847,226.750 356.983,223.242 358.164 C 221.145 358.870,190.859 359.544,186.979 358.971 C 180.886 358.071,177.295 354.093,177.295 348.242 C 177.295 343.436,178.338 342.019,188.574 332.919 C 196.087 326.240,196.120 326.063,189.954 325.634 C 176.862 324.724,175.862 308.529,188.809 307.101 C 193.295 306.606,217.959 307.019,220.128 307.625 M4.964 319.234 C 4.870 319.720,4.790 319.414,4.786 318.555 C 4.782 317.695,4.858 317.298,4.956 317.671 C 5.054 318.045,5.057 318.748,4.964 319.234 M338.477 325.780 C 330.696 327.482,331.727 339.844,339.648 339.844 C 347.017 339.844,348.637 327.507,341.474 325.944 C 340.900 325.819,340.254 325.673,340.039 325.620 C 339.824 325.567,339.121 325.639,338.477 325.780 M2.930 326.953 C 3.215 327.415,2.833 327.415,1.758 326.953 C 1.005 326.629,1.007 326.616,1.832 326.590 C 2.303 326.575,2.797 326.738,2.930 326.953 M144.652 327.323 C 138.850 329.957,141.618 339.672,147.837 338.505 C 153.593 337.425,154.073 328.512,148.460 326.953 C 146.640 326.447,146.565 326.454,144.652 327.323 M91.296 329.020 C 91.182 329.319,91.230 329.792,91.403 330.073 C 91.841 330.782,93.056 330.234,92.895 329.400 C 92.733 328.557,91.579 328.283,91.296 329.020 M0.041 336.133 C -0.034 338.460,0.026 338.672,0.761 338.672 C 1.202 338.672,1.563 338.496,1.563 338.281 C 1.563 338.066,2.100 337.891,2.757 337.891 C 3.415 337.891,3.852 337.728,3.729 337.530 C 3.607 337.331,2.893 337.226,2.143 337.296 C 1.393 337.365,0.682 337.264,0.562 337.071 C 0.442 336.877,0.619 336.719,0.954 336.719 C 1.719 336.719,1.724 336.434,0.973 335.683 C 0.390 335.099,0.539 334.179,1.155 334.560 C 1.330 334.668,1.691 334.495,1.957 334.175 C 2.366 333.683,2.263 333.594,1.281 333.594 C 0.125 333.594,0.123 333.597,0.041 336.133 M0.031 340.527 C 0.014 341.011,0.220 341.409,0.488 341.412 C 0.873 341.417,0.874 341.483,0.495 341.724 C 0.165 341.933,0.021 343.229,0.035 345.844 C 0.053 349.156,0.131 349.596,0.630 349.182 C 1.029 348.851,1.080 348.580,0.798 348.298 C 0.217 347.717,0.295 347.266,0.977 347.266 C 1.737 347.266,1.734 345.941,0.972 345.309 C 0.525 344.938,0.488 344.689,0.820 344.289 C 1.062 343.998,1.157 343.494,1.033 343.169 C 0.877 342.765,1.049 342.578,1.575 342.578 C 1.998 342.578,2.344 342.392,2.344 342.164 C 2.344 341.937,2.199 341.840,2.023 341.949 C 1.684 342.159,0.640 341.108,0.277 340.192 C 0.148 339.867,0.049 340.002,0.031 340.527 M-0.000 350.977 C -0.000 351.559,0.168 351.895,0.391 351.758 C 0.894 351.446,0.894 350.507,0.391 350.195 C 0.168 350.058,-0.000 350.394,-0.000 350.977 M0.000 352.907 C 0.000 353.650,0.560 353.967,1.343 353.666 C 1.914 353.447,1.908 353.371,1.281 352.896 C 0.376 352.209,-0.000 352.212,0.000 352.907 M0.000 359.973 C 0.000 360.289,0.264 360.547,0.586 360.547 C 1.344 360.547,1.344 359.915,0.586 359.624 C 0.229 359.487,0.000 359.624,0.000 359.973 M0.091 366.406 C 0.091 367.158,0.171 367.466,0.269 367.090 C 0.368 366.714,0.368 366.099,0.269 365.723 C 0.171 365.347,0.091 365.654,0.091 366.406 M47.447 366.819 C 47.107 367.370,47.570 369.141,48.054 369.141 C 48.265 369.141,48.438 368.525,48.438 367.773 C 48.438 366.443,47.963 365.985,47.447 366.819 M48.828 384.342 C 48.828 384.754,48.608 385.194,48.340 385.319 C 47.949 385.501,47.949 385.592,48.340 385.775 C 48.608 385.900,48.828 386.360,48.828 386.797 C 48.828 387.430,49.007 387.543,49.707 387.356 C 50.190 387.226,50.806 387.118,51.074 387.115 C 51.994 387.105,51.632 384.901,50.600 384.225 C 49.333 383.395,48.828 383.428,48.828 384.342 M65.918 395.202 C 65.327 395.291,64.360 395.291,63.770 395.202 C 63.179 395.112,63.662 395.039,64.844 395.039 C 66.025 395.039,66.509 395.112,65.918 395.202 " stroke="none" fill="#fb411a" fill-rule="evenodd"></path><path id="path2" d="M160.495 121.091 C 152.879 122.031,134.454 128.400,133.705 130.352 C 133.254 131.526,133.709 131.943,139.133 135.332 C 144.022 138.387,147.557 142.527,150.148 148.232 C 151.894 152.075,152.995 152.778,154.595 151.074 C 156.136 149.433,170.163 125.899,170.580 124.256 C 171.249 121.620,167.004 120.288,160.495 121.091 M87.971 121.690 C 83.622 122.634,81.792 124.423,82.659 126.881 C 82.896 127.554,84.913 129.146,88.978 131.868 C 97.324 137.456,101.565 141.352,101.562 143.430 C 101.561 144.080,99.451 145.471,91.602 149.995 C 80.413 156.445,67.449 165.410,65.502 168.044 C 61.669 173.231,78.266 176.220,103.320 174.855 C 114.397 174.251,121.707 175.527,121.411 178.012 C 121.221 179.598,119.242 180.359,113.477 181.061 C 98.205 182.923,99.753 181.971,94.336 192.831 C 84.856 211.836,62.774 238.577,56.686 238.425 C 55.416 238.394,55.201 238.543,54.554 239.907 C 53.289 242.571,43.787 250.007,42.351 249.456 C 41.995 249.319,41.714 249.616,41.543 250.307 C 41.205 251.675,39.811 253.798,38.301 255.241 C 36.825 256.652,36.790 257.597,38.184 258.461 C 38.774 258.827,39.725 259.551,40.296 260.071 L 41.334 261.014 42.444 260.227 C 43.849 259.230,52.412 256.878,53.724 257.129 C 54.488 257.275,54.895 257.056,55.539 256.151 C 56.809 254.368,59.646 252.734,61.474 252.734 C 62.717 252.734,63.231 252.500,64.034 251.565 C 65.389 249.988,71.348 246.484,72.675 246.484 C 73.566 246.484,73.783 246.275,73.994 245.215 C 74.356 243.398,75.290 242.468,81.641 237.598 C 84.756 235.210,88.887 231.913,90.820 230.272 C 94.800 226.893,96.953 225.630,98.296 225.887 C 99.109 226.043,99.219 225.916,99.219 224.827 C 99.219 221.300,102.765 217.578,106.125 217.578 C 107.625 217.578,107.709 217.510,108.182 215.931 C 108.567 214.645,109.852 213.078,114.025 208.802 C 126.844 195.664,130.438 191.003,130.460 187.489 C 130.470 185.896,128.323 181.180,126.387 178.542 C 125.666 177.560,124.638 175.766,124.102 174.554 C 121.489 168.647,114.211 157.806,106.829 148.828 C 102.877 144.023,102.852 143.966,104.127 142.784 C 105.244 141.749,113.387 137.507,119.141 134.963 C 127.129 131.430,127.010 129.496,118.600 126.208 C 108.065 122.089,95.005 120.162,87.971 121.690 " stroke="none" fill="#fbb106" fill-rule="evenodd"></path><path id="path3" d="M178.066 0.288 C 176.268 0.692,171.448 17.268,169.158 30.923 C 166.216 48.471,165.843 61.872,167.812 79.297 C 178.983 178.150,270.613 247.430,368.737 231.212 C 383.643 228.748,401.568 223.319,399.998 221.743 C 399.733 221.477,395.716 222.421,390.234 224.037 C 320.219 244.682,246.591 220.265,202.831 161.889 C 170.733 119.069,160.702 61.698,176.303 10.156 C 177.860 5.014,179.048 0.384,178.848 0.241 C 178.772 0.188,178.421 0.209,178.066 0.288 M187.552 2.051 C 184.816 8.123,180.813 22.690,179.297 32.094 C 160.359 149.567,266.308 247.190,381.386 218.302 C 388.711 216.463,394.533 214.597,397.852 213.025 L 400.195 211.914 398.345 211.795 C 397.046 211.712,395.240 212.080,392.290 213.031 C 265.151 253.985,147.398 136.160,187.482 8.097 C 189.502 1.642,189.549 -2.379,187.552 2.051 M213.605 1.074 C 210.548 4.377,204.416 23.348,202.176 36.430 C 187.059 124.731,258.900 205.672,347.710 200.398 C 365.814 199.323,389.118 193.679,397.924 188.237 C 399.450 187.293,400.591 185.613,399.362 186.119 C 398.961 186.285,397.666 186.733,396.484 187.117 C 395.303 187.500,392.490 188.522,390.234 189.387 C 349.117 205.163,301.857 199.958,264.844 175.577 C 210.967 140.088,188.477 71.223,211.204 11.329 C 212.386 8.213,213.668 4.697,214.053 3.516 C 214.437 2.334,214.879 1.060,215.035 0.684 C 215.459 -0.340,214.730 -0.141,213.605 1.074 M228.837 2.250 C 220.721 14.921,215.013 38.916,215.062 60.156 C 215.252 141.672,291.391 201.438,370.855 182.447 C 381.406 179.926,395.126 174.629,399.216 171.497 L 400.190 170.752 398.435 170.973 C 397.469 171.094,394.306 172.205,391.404 173.442 C 287.176 217.871,182.876 113.438,227.546 9.375 C 229.412 5.029,230.913 -0.037,230.323 0.003 C 230.296 0.005,229.627 1.016,228.837 2.250 M248.580 0.476 C 248.476 0.644,248.472 0.781,248.571 0.781 C 248.670 0.781,248.285 1.287,247.715 1.906 C 245.258 4.576,239.747 15.992,236.888 24.337 C 209.349 104.713,279.383 184.240,363.011 167.554 C 375.419 165.078,393.206 157.837,398.674 153.036 C 401.699 150.381,400.044 150.958,388.867 156.461 C 307.525 196.508,216.066 124.499,235.789 35.938 C 237.913 26.400,241.028 18.178,246.672 7.212 C 249.831 1.073,250.244 0.060,249.563 0.111 C 249.126 0.144,248.684 0.308,248.580 0.476 M276.314 2.452 C 243.855 37.190,248.374 94.969,286.009 126.422 C 318.175 153.304,368.516 152.605,397.949 124.866 C 399.784 123.137,401.001 121.255,399.316 122.752 C 398.940 123.086,397.930 123.650,397.070 124.005 C 396.211 124.359,394.541 125.403,393.359 126.323 C 348.276 161.445,281.906 142.534,261.905 88.867 C 251.815 61.794,256.865 29.184,274.500 7.532 C 276.541 5.027,277.731 3.126,277.733 2.369 C 277.734 2.061,278.117 1.401,278.584 0.904 C 279.051 0.407,279.247 0.000,279.019 0.000 C 278.791 0.000,277.574 1.103,276.314 2.452 M334.506 21.646 C 303.573 27.550,291.683 64.882,313.682 87.032 C 337.945 111.460,379.431 94.256,379.431 59.766 C 379.431 35.650,357.707 17.217,334.506 21.646 M347.652 23.655 C 382.664 30.297,388.777 77.572,356.613 92.949 C 336.747 102.447,312.660 91.850,306.068 70.714 C 297.891 44.493,320.804 18.562,347.652 23.655 M160.352 118.362 C 154.999 118.964,144.385 122.187,133.957 126.378 C 128.628 128.520,129.268 128.535,124.105 126.136 C 103.807 116.704,79.510 116.483,79.510 125.731 C 79.510 128.072,80.501 129.072,87.197 133.480 C 99.875 141.827,99.869 141.787,89.284 147.840 C 79.035 153.702,67.453 161.535,63.346 165.381 C 55.669 172.571,67.753 178.516,90.044 178.516 C 99.808 178.516,100.154 178.617,97.658 180.753 C 96.317 181.901,95.392 183.458,92.576 189.304 C 85.674 203.637,78.067 214.293,65.696 226.955 C 59.338 233.462,58.594 233.467,58.594 226.999 C 58.594 218.646,54.096 214.453,45.137 214.453 C 37.715 214.453,36.598 216.311,36.922 228.115 C 37.049 232.740,37.007 239.817,36.829 243.842 L 36.506 251.161 33.878 253.614 C 30.210 257.038,30.246 259.195,34.010 261.660 C 36.285 263.149,36.274 263.110,36.414 270.117 C 36.612 280.023,40.103 284.493,47.683 284.549 C 55.904 284.609,58.692 280.430,58.785 267.912 C 58.886 254.229,59.369 254.367,69.245 270.887 C 74.988 280.492,76.153 281.983,78.812 283.123 C 85.652 286.055,92.129 282.900,94.013 275.717 C 95.011 271.908,94.481 270.597,87.692 260.111 C 76.954 243.523,77.372 245.326,83.203 240.713 C 85.459 238.929,88.777 236.245,90.577 234.750 C 96.529 229.805,96.293 228.939,95.972 254.549 C 95.731 273.812,95.741 274.178,96.556 276.591 C 99.603 285.615,111.586 286.482,116.117 278.005 L 116.992 276.367 116.992 250.000 C 116.992 220.574,117.077 221.561,114.254 218.011 C 112.140 215.352,112.244 215.108,118.066 209.066 C 128.128 198.626,131.157 194.638,132.591 189.950 C 134.082 185.073,134.298 184.656,139.808 175.984 C 142.541 171.683,145.963 166.188,147.412 163.772 C 149.043 161.053,150.650 158.895,151.630 158.108 C 155.775 154.778,156.267 154.127,162.413 143.832 C 173.364 125.489,173.555 125.136,173.596 123.179 C 173.676 119.350,168.455 117.451,160.352 118.362 M169.105 121.616 C 171.886 122.959,171.849 123.045,160.384 141.992 C 153.180 153.897,152.822 154.116,150.148 148.232 C 147.557 142.527,144.022 138.387,139.133 135.332 C 133.709 131.943,133.254 131.526,133.705 130.352 C 134.454 128.400,152.879 122.031,160.495 121.091 C 163.541 120.715,167.772 120.973,169.105 121.616 M100.947 121.684 C 106.612 122.427,113.336 124.150,118.600 126.208 C 127.010 129.496,127.129 131.430,119.141 134.963 C 113.387 137.507,105.244 141.749,104.127 142.784 C 102.852 143.966,102.877 144.023,106.829 148.828 C 114.211 157.806,121.489 168.647,124.102 174.554 C 124.638 175.766,125.666 177.560,126.387 178.542 C 128.323 181.180,130.470 185.896,130.460 187.489 C 130.438 191.000,126.872 195.628,114.043 208.789 C 109.300 213.655,107.065 216.751,107.871 217.339 C 107.946 217.394,108.838 217.914,109.853 218.496 C 111.072 219.194,112.066 220.178,112.783 221.397 L 113.867 223.242 113.979 248.149 C 114.051 264.411,113.950 273.577,113.686 274.555 C 111.842 281.405,103.149 282.497,100.258 276.241 C 99.429 274.446,99.411 273.985,99.219 250.195 L 99.023 225.977 98.175 225.856 C 96.881 225.671,94.690 226.987,90.820 230.272 C 88.887 231.913,84.756 235.210,81.641 237.598 C 73.563 243.792,72.661 245.097,74.927 247.314 C 76.272 248.628,88.814 267.730,89.895 270.110 C 92.185 275.153,88.975 280.469,83.638 280.469 C 79.833 280.469,78.357 279.061,73.177 270.488 C 71.236 267.276,68.216 262.297,66.465 259.424 C 64.714 256.551,63.281 253.870,63.281 253.467 C 63.281 252.240,60.324 252.477,58.109 253.882 C 54.989 255.861,54.984 255.878,55.055 265.409 C 55.092 270.380,54.946 274.430,54.697 275.356 C 53.074 281.384,45.305 282.478,41.992 277.144 C 40.707 275.075,39.991 264.880,40.940 262.159 C 41.368 260.930,40.683 260.011,38.184 258.461 C 36.790 257.597,36.825 256.652,38.301 255.241 C 41.005 252.656,42.021 250.247,41.221 248.315 C 40.636 246.903,40.231 221.585,40.769 220.015 C 41.744 217.165,49.287 217.119,52.504 219.943 C 54.659 221.836,54.974 223.175,55.132 231.132 C 55.337 241.452,56.071 241.404,67.003 230.357 C 79.439 217.791,87.203 207.132,94.336 192.831 C 99.753 181.971,98.205 182.923,113.477 181.061 C 119.242 180.359,121.221 179.598,121.411 178.012 C 121.707 175.527,114.397 174.251,103.320 174.855 C 78.266 176.220,61.669 173.231,65.502 168.044 C 67.449 165.410,80.413 156.445,91.602 149.995 C 99.451 145.471,101.561 144.080,101.562 143.430 C 101.565 141.352,97.324 137.456,88.978 131.868 C 84.913 129.146,82.896 127.554,82.659 126.881 C 81.053 122.329,88.886 120.103,100.947 121.684 M130.025 209.630 C 121.497 211.113,119.308 222.755,126.574 227.975 C 128.988 229.710,128.988 230.055,126.575 231.827 C 125.123 232.892,124.312 233.907,123.353 235.855 L 122.070 238.459 122.070 257.218 C 122.070 275.417,122.095 276.029,122.886 277.739 C 126.713 286.007,138.032 285.888,141.875 277.539 C 142.905 275.300,143.468 246.597,142.607 240.138 C 142.025 235.767,140.050 232.642,136.753 230.878 C 135.509 230.212,135.766 229.452,137.684 228.133 C 146.848 221.827,141.009 207.719,130.025 209.630 M136.480 213.808 C 140.974 217.235,140.204 223.811,135.057 225.962 C 129.280 228.375,123.343 222.812,125.544 217.048 C 127.196 212.721,132.857 211.044,136.480 213.808 M156.445 216.353 C 153.773 217.627,150.915 220.355,149.482 222.998 L 148.503 224.805 148.223 248.633 C 148.009 266.829,148.056 273.015,148.421 274.805 C 151.080 287.830,167.262 286.529,168.780 273.167 C 169.256 268.982,170.144 267.409,172.611 266.383 C 174.105 265.761,174.972 266.655,178.944 272.919 C 186.070 284.156,192.147 286.699,197.966 280.880 C 202.621 276.225,202.024 272.208,195.072 261.426 C 190.188 253.851,190.042 253.249,192.590 251.182 C 201.456 243.993,202.846 236.933,196.287 232.420 C 191.305 228.993,188.024 229.863,178.001 237.271 C 168.285 244.453,169.018 244.845,168.722 232.306 C 168.445 220.538,167.674 218.470,162.698 216.153 C 160.164 214.973,159.280 215.001,156.445 216.353 M161.229 218.570 C 165.418 220.320,165.756 221.443,166.005 234.433 C 166.304 250.089,165.793 249.859,178.767 240.154 C 187.570 233.569,190.387 232.441,193.723 234.166 C 198.579 236.677,198.563 242.493,193.689 246.559 C 185.786 253.152,185.812 252.317,193.136 263.679 C 199.185 273.065,199.526 277.394,194.409 279.822 C 189.760 282.028,187.030 280.218,181.242 271.094 C 175.816 262.539,174.567 261.631,171.094 263.713 C 167.531 265.849,166.417 267.686,165.962 272.174 C 164.953 282.128,153.547 283.975,151.581 274.502 C 150.769 270.591,151.202 224.780,152.069 222.857 C 153.864 218.879,157.686 217.089,161.229 218.570 M135.508 233.769 C 137.351 234.722,138.949 236.883,139.414 239.051 C 139.998 241.772,139.998 271.900,139.414 274.621 C 137.808 282.108,127.071 282.483,125.508 275.106 C 124.695 271.274,125.147 238.956,126.036 237.305 C 128.007 233.643,132.222 232.070,135.508 233.769 M294.597 286.954 C 287.078 290.701,287.868 300.660,295.996 304.606 C 297.677 305.422,297.620 305.609,295.215 307.148 C 292.434 308.928,290.777 310.919,290.056 313.347 C 289.145 316.412,289.164 349.264,290.077 352.371 C 292.675 361.203,305.758 361.064,308.410 352.175 C 309.133 349.752,309.259 317.333,308.558 314.065 C 307.884 310.925,306.059 308.895,301.333 306.033 C 300.748 305.679,301.058 305.350,303.549 303.689 C 314.226 296.569,306.034 281.255,294.597 286.954 M302.246 289.110 C 305.683 290.774,307.117 294.836,305.469 298.241 C 303.259 302.806,297.147 303.614,293.785 299.784 C 288.718 294.014,295.279 285.737,302.246 289.110 M88.262 290.766 C 84.148 291.876,82.617 293.644,80.452 299.787 C 79.774 301.710,77.985 305.929,76.476 309.162 C 74.968 312.394,73.216 316.445,72.584 318.164 C 71.951 319.883,70.064 324.541,68.390 328.516 C 61.664 344.484,61.153 345.959,61.153 349.414 C 61.152 362.798,76.953 365.729,83.362 353.533 C 85.303 349.840,84.977 349.976,92.088 349.885 C 99.228 349.793,99.069 349.733,100.810 353.182 C 103.739 358.985,108.839 361.551,114.296 359.968 C 118.482 358.754,122.266 353.906,122.266 349.757 C 122.266 348.001,123.118 348.451,126.664 352.079 C 134.705 360.305,145.731 362.477,155.652 357.789 C 158.784 356.310,159.469 356.341,161.996 358.081 C 166.595 361.249,171.938 359.882,173.623 355.107 C 175.023 351.139,174.287 299.882,172.781 296.480 C 167.937 285.535,153.125 289.951,153.125 302.340 C 153.125 305.700,152.619 306.440,150.554 306.096 C 133.276 303.223,120.275 314.120,119.265 332.324 C 119.131 334.741,118.915 336.719,118.784 336.719 C 118.190 336.719,115.940 331.482,106.195 307.422 C 99.921 291.931,96.325 288.592,88.262 290.766 M240.952 291.608 C 238.561 292.374,235.886 294.988,234.939 297.483 C 233.910 300.195,233.551 348.700,234.535 352.084 C 236.952 360.398,248.209 361.916,252.547 354.514 C 253.484 352.915,253.748 351.816,254.560 346.113 C 254.827 344.243,257.297 341.797,258.919 341.797 C 260.313 341.797,260.577 342.114,264.871 348.972 C 271.858 360.133,279.108 362.508,284.364 355.360 C 287.865 350.600,287.213 347.836,279.929 336.575 C 275.494 329.719,275.358 329.105,277.808 326.995 C 285.554 320.323,287.021 317.049,284.595 311.840 C 281.093 304.318,274.864 304.844,262.905 313.673 C 253.978 320.264,254.297 320.416,254.297 309.592 C 254.297 299.434,253.716 296.711,250.964 293.958 C 248.434 291.429,244.438 290.491,240.952 291.608 M165.343 293.773 C 167.391 294.342,169.354 296.189,170.163 298.309 C 171.268 301.202,171.256 352.338,170.150 354.166 C 168.346 357.147,165.915 356.892,161.591 353.269 C 160.072 351.996,159.061 352.099,155.550 353.889 C 137.370 363.152,118.549 346.619,123.819 326.014 C 126.908 313.933,139.169 306.195,149.973 309.506 C 155.139 311.089,155.926 310.374,156.276 303.782 C 156.559 298.437,157.265 296.425,159.382 294.917 C 161.453 293.442,163.049 293.136,165.343 293.773 M94.935 294.929 C 97.969 296.476,97.920 296.377,108.816 323.339 C 119.578 349.971,119.577 349.966,117.018 353.321 C 113.198 358.329,107.531 357.041,103.711 350.297 C 101.290 346.024,101.072 345.923,93.848 345.764 C 83.521 345.537,82.491 345.890,80.115 350.461 C 76.631 357.166,70.285 358.565,66.860 353.384 C 64.510 349.830,64.670 349.239,74.675 324.414 C 79.524 312.383,83.887 301.331,84.371 299.855 C 86.176 294.351,90.160 292.493,94.935 294.929 M248.084 295.096 C 251.040 297.052,251.352 298.417,251.478 309.961 C 251.648 325.591,251.625 325.578,263.582 316.537 C 273.444 309.082,276.311 307.967,279.718 310.263 C 284.655 313.590,283.866 318.640,277.623 323.671 C 271.671 328.467,271.676 328.632,278.100 338.680 C 284.296 348.373,284.868 350.989,281.503 354.235 C 276.742 358.827,273.510 357.123,266.585 346.370 C 260.647 337.151,259.399 336.599,254.538 341.041 C 252.181 343.196,251.754 344.165,251.386 348.191 C 250.590 356.893,241.220 359.507,237.747 351.995 C 236.786 349.919,236.643 301.956,237.588 298.725 C 238.860 294.373,244.202 292.526,248.084 295.096 M336.133 306.641 C 325.282 308.273,316.726 315.951,314.036 326.471 C 308.808 346.913,329.832 365.262,348.967 356.957 C 351.991 355.645,352.606 355.690,355.347 357.429 C 358.955 359.717,363.293 358.750,365.039 355.268 C 365.791 353.768,365.820 352.931,365.820 332.617 L 365.820 311.523 364.869 309.863 C 362.941 306.497,359.199 305.809,355.459 308.135 C 352.594 309.916,352.281 309.938,349.165 308.570 C 344.804 306.656,340.384 306.002,336.133 306.641 M188.809 307.101 C 175.862 308.529,176.862 324.724,189.954 325.634 C 196.120 326.063,196.087 326.240,188.574 332.919 C 178.338 342.019,177.295 343.436,177.295 348.242 C 177.295 354.093,180.886 358.071,186.979 358.971 C 190.859 359.544,221.145 358.870,223.242 358.164 C 226.750 356.983,229.680 352.847,229.685 349.069 C 229.694 342.992,225.740 340.000,217.188 339.609 C 209.225 339.245,209.178 339.793,217.939 330.922 C 226.075 322.684,227.158 321.020,227.134 316.797 C 227.109 312.469,224.300 308.792,220.128 307.625 C 217.959 307.019,193.295 306.606,188.809 307.101 M302.322 309.755 C 306.357 311.813,306.445 312.305,306.445 332.813 C 306.445 349.728,306.423 350.244,305.613 351.995 C 303.071 357.492,295.305 357.611,292.964 352.191 C 292.201 350.425,291.601 322.591,292.195 316.526 C 292.785 310.495,297.541 307.315,302.322 309.755 M344.727 309.529 C 345.801 309.823,347.822 310.612,349.219 311.281 C 352.474 312.843,352.942 312.818,355.709 310.938 C 359.656 308.257,362.552 309.030,363.313 312.968 C 363.801 315.490,363.753 349.972,363.259 352.277 C 362.400 356.283,359.723 357.094,355.656 354.579 C 352.764 352.791,352.269 352.784,348.400 354.485 C 328.985 363.021,309.119 342.375,317.963 322.852 C 322.535 312.757,334.595 306.754,344.727 309.529 M220.801 311.052 C 224.076 312.977,225.163 316.919,223.385 320.426 C 222.898 321.386,219.078 325.580,214.205 330.505 C 202.801 342.030,202.808 342.218,214.648 342.593 C 224.204 342.896,226.557 344.151,226.561 348.945 C 226.566 355.229,224.506 355.854,203.786 355.857 C 183.760 355.860,182.350 355.518,180.889 350.302 C 179.653 345.887,180.892 344.021,191.193 334.785 C 203.336 323.898,203.510 323.017,193.593 322.645 C 185.483 322.340,183.008 320.881,183.008 316.406 C 183.008 313.146,184.842 311.038,188.477 310.120 C 189.121 309.957,196.240 309.855,204.297 309.892 L 218.945 309.961 220.801 311.052 M4.786 318.555 C 4.790 319.414,4.870 319.720,4.964 319.234 C 5.057 318.748,5.054 318.045,4.956 317.671 C 4.858 317.298,4.782 317.695,4.786 318.555 M90.296 321.691 C 88.484 323.994,86.168 331.169,86.746 332.688 C 88.186 336.477,98.192 334.990,97.534 331.084 C 96.388 324.283,92.364 319.061,90.296 321.691 M26.054 322.948 C 25.295 324.301,25.697 328.906,26.575 328.906 C 26.745 328.906,27.005 329.622,27.153 330.497 C 27.301 331.371,28.020 333.085,28.750 334.305 C 29.481 335.525,30.293 337.007,30.555 337.598 C 30.816 338.188,31.168 338.672,31.336 338.672 C 31.503 338.672,31.641 339.011,31.641 339.425 C 31.641 339.839,32.096 340.536,32.652 340.973 C 33.872 341.933,34.102 344.674,33.093 346.214 C 32.750 346.738,32.414 348.009,32.348 349.039 C 32.221 350.992,31.858 351.357,28.223 353.196 C 27.738 353.442,27.341 354.007,27.338 354.457 C 27.333 355.127,27.264 355.169,26.953 354.688 C 26.631 354.190,26.574 354.207,26.568 354.801 C 26.565 355.186,26.914 355.879,27.344 356.340 C 27.873 356.908,28.116 357.690,28.098 358.765 C 28.076 360.009,27.998 360.183,27.734 359.570 C 27.550 359.141,27.386 359.009,27.371 359.277 C 27.282 360.868,25.149 359.030,24.735 357.006 C 24.472 355.717,24.450 355.703,24.184 356.641 C 23.957 357.439,23.899 357.320,23.867 355.985 C 23.836 354.685,23.549 354.057,22.461 352.903 C 21.378 351.754,21.094 351.135,21.094 349.923 C 21.094 347.363,20.264 342.865,19.686 342.286 C 19.386 341.986,19.141 341.490,19.141 341.183 C 19.141 340.876,18.995 340.625,18.816 340.625 C 18.187 340.625,15.963 337.091,15.745 335.742 C 15.623 334.990,15.326 334.364,15.086 334.351 C 13.854 334.282,11.031 333.949,10.293 333.785 C 9.243 333.552,8.676 331.952,8.892 329.836 C 9.044 328.355,8.968 328.196,7.941 327.838 C 6.798 327.439,5.555 328.386,5.417 329.761 C 5.389 330.043,5.236 329.658,5.078 328.906 C 4.822 327.688,4.781 327.794,4.700 329.883 C 4.635 331.562,4.532 331.950,4.335 331.250 C 4.070 330.305,4.046 330.299,3.605 331.055 C 3.279 331.612,3.144 331.668,3.131 331.250 C 3.115 330.736,3.068 330.735,2.749 331.240 C 2.509 331.619,2.544 331.917,2.853 332.113 C 3.110 332.276,2.529 332.415,1.563 332.422 C 0.421 332.430,-0.009 332.552,0.337 332.771 C 0.787 333.056,0.787 333.142,0.337 333.320 C 0.044 333.437,0.398 333.546,1.122 333.563 C 2.243 333.589,2.367 333.680,1.957 334.175 C 1.691 334.495,1.330 334.668,1.155 334.560 C 0.539 334.179,0.390 335.099,0.973 335.683 C 1.724 336.434,1.719 336.719,0.954 336.719 C 0.619 336.719,0.442 336.877,0.562 337.071 C 0.682 337.264,1.393 337.365,2.143 337.296 C 2.893 337.226,3.607 337.331,3.729 337.530 C 3.852 337.728,3.415 337.891,2.757 337.891 C 2.100 337.891,1.563 338.066,1.563 338.281 C 1.563 338.496,1.223 338.672,0.807 338.672 C 0.213 338.672,0.090 338.882,0.230 339.654 C 0.438 340.802,1.558 342.236,2.023 341.949 C 2.199 341.840,2.344 341.937,2.344 342.164 C 2.344 342.392,1.998 342.578,1.575 342.578 C 1.049 342.578,0.877 342.765,1.033 343.169 C 1.157 343.494,1.062 343.998,0.820 344.289 C 0.488 344.689,0.525 344.938,0.972 345.309 C 1.734 345.941,1.737 347.266,0.977 347.266 C 0.295 347.266,0.217 347.717,0.798 348.298 C 1.080 348.580,1.026 348.854,0.620 349.190 C 0.153 349.578,0.128 349.825,0.496 350.414 C 0.852 350.984,0.849 351.260,0.483 351.626 C 0.112 351.997,0.226 352.242,1.009 352.755 C 1.988 353.398,1.353 354.306,0.355 353.689 C -0.312 353.276,-0.002 355.186,0.684 355.706 C 1.306 356.178,1.309 356.226,0.716 356.238 C -0.045 356.252,-0.022 359.433,0.741 359.687 C 1.339 359.887,1.283 360.547,0.667 360.547 C 0.286 360.547,0.167 361.548,0.179 364.648 C 0.188 366.904,0.349 368.750,0.536 368.750 C 0.724 368.750,0.702 368.970,0.488 369.238 C -0.224 370.134,-0.127 393.934,0.595 395.329 C 0.930 395.977,1.098 396.678,0.969 396.886 C 0.707 397.311,0.767 397.328,2.869 397.405 C 3.696 397.436,4.453 397.329,4.553 397.167 C 4.653 397.005,5.041 397.037,5.416 397.237 C 5.849 397.469,6.303 397.456,6.662 397.202 C 7.116 396.880,7.088 396.846,6.523 397.029 C 6.094 397.168,5.916 397.099,6.067 396.855 C 6.204 396.634,6.690 396.571,7.147 396.716 C 8.291 397.079,12.757 396.997,20.558 396.470 C 24.183 396.225,29.653 396.030,32.715 396.036 C 35.949 396.044,38.281 395.895,38.281 395.681 C 38.281 395.478,39.827 395.313,41.719 395.313 C 43.946 395.313,45.329 395.141,45.648 394.824 C 46.043 394.433,46.084 394.483,45.856 395.081 C 45.601 395.750,45.706 395.800,46.879 395.566 C 48.502 395.241,48.771 394.990,48.036 394.486 C 47.624 394.205,47.849 394.162,48.828 394.336 C 49.841 394.516,50.043 394.473,49.609 394.170 C 49.126 393.833,49.177 393.761,49.902 393.756 C 50.386 393.753,50.781 393.926,50.781 394.141 C 50.781 394.355,50.967 394.531,51.195 394.531 C 51.422 394.531,51.488 394.337,51.341 394.099 C 51.157 393.800,51.361 393.760,52.002 393.970 C 56.304 395.378,74.609 393.682,74.609 391.876 C 74.609 391.546,74.500 391.386,74.366 391.520 C 74.232 391.654,73.556 391.331,72.864 390.803 C 72.172 390.276,71.447 389.841,71.252 389.838 C 70.703 389.828,68.359 387.647,68.359 387.146 C 68.359 386.572,66.447 385.838,65.698 386.126 C 65.375 386.250,64.884 386.002,64.572 385.556 C 64.267 385.121,63.795 384.766,63.523 384.766 C 62.512 384.766,61.385 382.957,60.927 380.600 C 60.525 378.537,57.813 374.461,57.813 375.922 C 57.813 376.084,57.285 375.905,56.641 375.524 C 55.546 374.877,55.468 374.676,55.463 372.474 C 55.459 371.178,55.325 369.941,55.164 369.727 C 54.515 368.863,52.406 367.127,51.903 367.043 C 50.384 366.792,49.609 365.966,49.609 364.598 C 49.609 363.567,49.420 363.159,48.877 363.016 C 48.473 362.911,47.918 362.403,47.642 361.888 C 47.366 361.372,46.830 360.852,46.451 360.731 C 45.713 360.497,44.922 357.675,44.922 355.277 C 44.922 354.549,44.746 353.844,44.531 353.711 C 44.316 353.578,44.141 352.597,44.141 351.531 C 44.141 349.791,44.031 349.544,43.066 349.121 C 42.476 348.861,41.867 348.469,41.714 348.250 C 41.561 348.031,41.121 347.817,40.737 347.774 C 40.353 347.731,39.263 347.504,38.313 347.269 C 37.364 347.034,36.354 346.932,36.067 347.041 C 35.739 347.167,35.547 346.948,35.547 346.449 C 35.547 346.013,35.376 345.762,35.168 345.891 C 34.534 346.283,34.255 344.202,34.773 342.951 C 35.569 341.029,34.038 334.766,32.772 334.766 C 32.238 334.766,31.269 332.361,31.007 330.389 C 30.769 328.592,30.678 328.459,29.800 328.627 C 28.712 328.835,28.395 328.261,27.959 325.294 C 27.707 323.580,26.520 322.118,26.054 322.948 M145.117 323.404 C 136.539 325.554,135.275 337.368,143.207 341.249 C 151.866 345.485,160.136 333.726,153.593 326.483 C 151.302 323.947,147.892 322.708,145.117 323.404 M336.436 323.670 C 334.397 324.420,331.572 327.462,330.933 329.595 C 328.143 338.909,338.819 346.264,345.640 339.726 C 352.976 332.694,345.822 320.214,336.436 323.670 M341.474 325.944 C 347.161 327.185,347.857 336.412,342.460 339.025 C 335.979 342.162,329.912 333.732,334.623 328.134 C 336.008 326.487,338.627 325.272,340.039 325.620 C 340.254 325.673,340.900 325.819,341.474 325.944 M1.758 326.953 C 2.833 327.415,3.215 327.415,2.930 326.953 C 2.797 326.738,2.303 326.575,1.832 326.590 C 1.007 326.616,1.005 326.629,1.758 326.953 M148.460 326.953 C 154.073 328.512,153.593 337.425,147.837 338.505 C 141.618 339.672,138.850 329.957,144.652 327.323 C 146.565 326.454,146.640 326.447,148.460 326.953 M92.895 329.400 C 93.056 330.234,91.841 330.782,91.403 330.073 C 90.952 329.344,91.393 328.456,92.135 328.599 C 92.481 328.665,92.823 329.026,92.895 329.400 M48.438 367.773 C 48.438 368.525,48.265 369.141,48.054 369.141 C 47.570 369.141,47.107 367.370,47.447 366.819 C 47.963 365.985,48.438 366.443,48.438 367.773 M50.600 384.225 C 51.632 384.901,51.994 387.105,51.074 387.115 C 50.806 387.118,50.190 387.226,49.707 387.356 C 49.007 387.543,48.828 387.430,48.828 386.797 C 48.828 386.360,48.608 385.900,48.340 385.775 C 47.949 385.592,47.949 385.501,48.340 385.319 C 48.608 385.194,48.828 384.754,48.828 384.342 C 48.828 383.428,49.333 383.395,50.600 384.225 M63.770 395.202 C 64.360 395.291,65.327 395.291,65.918 395.202 C 66.509 395.112,66.025 395.039,64.844 395.039 C 63.662 395.039,63.179 395.112,63.770 395.202 " stroke="none" fill="#f97c20" fill-rule="evenodd"></path><path id="path4" d="M233.586 1.660 C 233.581 2.573,233.124 4.551,232.569 6.055 C 229.981 13.075,228.398 17.545,227.865 19.336 C 227.546 20.410,227.129 21.793,226.940 22.408 C 226.586 23.562,227.154 24.609,228.133 24.609 C 228.383 24.609,229.030 24.957,229.570 25.382 C 231.287 26.732,231.687 26.219,235.346 17.969 C 236.346 15.713,238.193 11.997,239.451 9.711 C 242.488 4.189,242.740 3.744,242.969 3.516 C 243.557 2.927,244.922 0.755,244.922 0.406 C 244.922 0.144,242.920 0.000,239.258 0.000 L 233.594 0.000 233.586 1.660 M280.996 0.575 C 281.221 1.161,280.595 3.377,280.001 4.095 C 279.821 4.314,279.193 5.208,278.606 6.084 C 278.019 6.959,276.280 9.420,274.741 11.552 C 266.634 22.784,262.000 35.806,260.339 52.023 C 260.079 54.552,260.954 66.810,261.255 64.864 C 261.402 63.910,263.268 66.997,263.278 68.212 C 263.282 68.788,265.992 71.094,266.665 71.094 C 266.952 71.094,267.188 71.363,267.188 71.692 C 267.188 72.021,267.441 72.387,267.751 72.506 C 268.138 72.655,268.310 73.319,268.299 74.633 C 268.286 76.415,269.079 78.056,269.669 77.466 C 270.027 77.108,270.703 79.198,270.703 80.663 C 270.703 81.856,271.476 82.662,272.291 82.320 C 272.413 82.268,272.940 82.683,273.463 83.241 C 273.986 83.800,274.623 84.184,274.879 84.095 C 275.148 84.003,275.546 84.609,275.822 85.528 C 276.204 86.804,276.442 87.076,277.017 86.894 C 277.411 86.769,277.734 86.835,277.734 87.041 C 277.734 88.161,280.745 87.476,281.732 86.133 C 281.890 85.918,282.022 85.830,282.026 85.938 C 282.117 88.773,283.667 92.969,284.623 92.969 C 285.546 92.969,289.063 96.566,289.063 97.510 C 289.063 98.842,289.473 99.609,290.184 99.609 C 290.610 99.609,291.073 100.288,291.535 101.587 C 292.390 103.997,293.204 104.864,294.681 104.942 C 296.327 105.029,297.773 106.293,298.232 108.043 C 298.779 110.128,298.981 110.373,300.968 111.366 C 302.236 111.999,302.764 112.527,302.943 113.342 C 303.077 113.953,303.316 114.453,303.474 114.453 C 304.601 114.453,305.425 118.733,304.633 120.472 C 303.728 122.458,305.754 125.101,306.913 123.446 C 307.217 123.012,307.720 122.656,308.030 122.656 C 308.340 122.656,308.594 122.382,308.594 122.047 C 308.594 121.712,308.770 121.547,308.984 121.680 C 309.199 121.812,309.375 121.747,309.375 121.534 C 309.375 120.745,311.053 120.580,311.591 121.316 C 311.876 121.706,312.109 121.815,312.109 121.559 C 312.109 121.303,312.285 121.094,312.500 121.094 C 312.715 121.094,312.891 121.475,312.891 121.940 C 312.891 122.406,313.007 122.670,313.149 122.529 C 313.290 122.387,313.652 122.621,313.952 123.049 C 314.252 123.478,314.776 123.828,315.116 123.828 C 315.456 123.828,315.968 124.136,316.253 124.512 C 316.868 125.322,316.961 126.563,316.406 126.563 C 316.191 126.563,316.016 127.012,316.016 127.562 C 316.016 128.129,316.185 128.457,316.406 128.320 C 316.621 128.188,316.797 128.353,316.797 128.688 C 316.797 129.077,317.149 129.297,317.773 129.297 C 318.311 129.297,318.750 129.473,318.750 129.688 C 318.750 130.182,320.190 130.202,320.493 129.712 C 320.839 129.152,322.438 129.412,323.173 130.148 C 323.920 130.895,324.053 132.673,323.378 132.897 C 323.131 132.980,322.854 134.005,322.763 135.176 L 322.598 137.305 324.131 138.161 C 328.944 140.852,347.835 141.852,357.031 139.904 C 370.953 136.954,379.962 133.063,390.630 125.391 C 396.756 120.985,399.263 119.989,399.731 121.777 C 399.829 122.153,399.930 94.907,399.955 61.230 L 400.000 0.000 340.388 0.000 C 288.067 0.000,280.803 0.070,280.996 0.575 M348.350 19.733 C 386.846 27.036,393.934 78.294,358.984 96.630 C 331.213 111.199,298.173 89.575,299.721 57.843 C 300.048 51.157,303.758 40.349,306.907 36.914 C 307.301 36.484,308.553 34.955,309.690 33.515 C 317.993 22.996,334.510 17.108,348.350 19.733 M399.414 155.487 C 396.872 159.419,375.312 168.326,361.641 171.092 C 354.698 172.497,352.647 172.968,350.471 173.657 C 350.087 173.778,350.068 174.007,350.393 174.615 C 350.628 175.053,350.962 175.325,351.134 175.219 C 351.307 175.112,351.651 175.469,351.898 176.012 C 352.455 177.234,354.932 178.360,357.844 178.714 C 363.622 179.418,382.602 174.540,393.449 169.565 C 396.173 168.315,399.090 167.803,399.352 168.529 C 399.830 169.852,400.007 167.692,399.912 161.677 C 399.838 156.970,399.685 155.068,399.414 155.487 M152.242 163.668 C 151.699 164.095,149.706 166.952,147.813 170.015 C 145.921 173.079,142.794 177.959,140.864 180.859 C 133.969 191.223,133.976 191.178,137.749 199.764 C 146.191 218.979,147.148 220.497,149.744 218.803 C 152.024 217.315,155.463 214.172,155.998 213.086 C 158.356 208.307,158.039 179.969,155.490 167.648 C 154.491 162.816,154.035 162.258,152.242 163.668 M399.563 189.941 C 399.538 190.210,399.545 190.649,399.580 190.918 C 399.615 191.187,399.362 191.406,399.018 191.406 C 398.673 191.406,398.500 191.230,398.633 191.016 C 398.766 190.801,398.683 190.625,398.448 190.625 C 398.214 190.625,397.922 190.888,397.798 191.209 C 397.675 191.530,397.429 191.703,397.252 191.593 C 397.074 191.483,396.818 191.573,396.683 191.792 C 396.371 192.296,394.343 193.228,386.392 196.518 C 379.287 199.458,378.516 199.968,378.516 201.723 C 378.516 207.821,384.453 211.502,391.211 209.593 C 392.839 209.133,395.817 208.563,397.461 208.397 C 397.676 208.375,398.335 208.486,398.926 208.644 L 400.000 208.930 400.000 199.191 C 400.000 191.202,399.815 187.284,399.563 189.941 M398.533 226.849 C 398.263 226.943,398.119 227.144,398.213 227.296 C 398.307 227.448,398.042 227.598,397.626 227.629 C 396.330 227.727,394.445 229.302,394.758 230.025 C 394.910 230.376,395.149 231.367,395.289 232.227 L 395.542 233.789 395.876 232.227 C 396.182 230.791,396.231 230.743,396.479 231.641 C 396.627 232.178,396.909 232.588,397.105 232.552 C 397.301 232.516,397.436 233.658,397.406 235.091 C 397.376 236.523,397.529 237.915,397.747 238.184 C 398.143 238.673,397.741 238.851,396.582 238.701 C 395.628 238.577,396.111 239.373,397.148 239.633 C 397.727 239.778,398.034 240.017,397.830 240.164 C 397.162 240.642,397.146 242.578,397.810 242.578 C 398.792 242.578,399.335 244.139,399.322 246.922 C 399.309 249.476,399.045 250.559,398.508 250.251 C 398.362 250.167,397.891 250.239,397.461 250.412 C 396.751 250.698,396.769 250.729,397.656 250.760 C 399.431 250.821,399.771 251.298,399.317 253.088 C 399.058 254.110,399.047 254.776,399.286 254.925 C 399.493 255.052,399.568 255.403,399.453 255.704 C 399.338 256.004,399.414 256.250,399.622 256.250 C 399.856 256.250,400.000 252.375,400.000 246.067 C 400.000 236.063,399.986 235.889,399.219 236.133 C 398.789 236.269,398.438 236.214,398.438 236.009 C 398.438 235.805,398.774 235.550,399.185 235.443 C 399.859 235.266,399.934 234.847,399.951 231.136 C 399.970 227.023,399.770 226.417,398.533 226.849 M399.519 264.045 C 399.249 265.007,399.411 265.563,399.836 265.138 C 399.961 265.013,400.001 264.500,399.926 263.998 L 399.789 263.086 399.519 264.045 M399.393 266.440 C 399.249 266.674,399.326 267.061,399.565 267.300 C 399.884 267.619,400.000 267.506,400.000 266.875 C 400.000 265.932,399.797 265.787,399.393 266.440 M399.472 270.013 C 399.347 270.492,399.414 271.055,399.622 271.263 C 399.866 271.506,400.000 271.196,400.000 270.391 C 400.000 268.930,399.794 268.782,399.472 270.013 M373.659 398.739 C 373.599 398.798,372.689 398.913,371.638 398.994 C 370.587 399.075,369.390 399.277,368.979 399.442 C 368.460 399.650,368.316 399.605,368.508 399.294 C 368.806 398.812,363.888 398.873,363.403 399.358 C 363.264 399.496,362.521 399.589,361.751 399.563 L 360.352 399.517 361.523 399.252 C 362.168 399.106,360.410 399.016,357.617 399.051 C 349.704 399.151,331.462 399.698,331.299 399.839 C 331.219 399.909,346.644 399.976,365.577 399.987 C 398.333 400.007,401.019 399.925,399.512 398.949 C 399.082 398.671,373.938 398.467,373.659 398.739 M319.238 399.879 C 319.614 399.977,320.229 399.977,320.605 399.879 C 320.981 399.780,320.674 399.700,319.922 399.700 C 319.170 399.700,318.862 399.780,319.238 399.879 M322.559 399.885 C 323.042 399.978,323.833 399.978,324.316 399.885 C 324.800 399.792,324.404 399.716,323.438 399.716 C 322.471 399.716,322.075 399.792,322.559 399.885 " stroke="none" fill="#f91b1c" fill-rule="evenodd"></path></g></svg>